<mxfile host="app.diagrams.net" agent="Mozilla/5.0 (Macintosh; Intel Mac OS X 10_15_7) AppleWebKit/537.36 (KHTML, like Gecko) Chrome/134.0.0.0 Safari/537.36" version="26.2.12">
  <diagram name="Page-1" id="QN_d8ZHQl40MdDGozmyU">
    <mxGraphModel dx="1569" dy="1135" grid="1" gridSize="10" guides="1" tooltips="1" connect="1" arrows="1" fold="1" page="1" pageScale="1" pageWidth="827" pageHeight="1169" math="0" shadow="0">
      <root>
        <mxCell id="0" />
        <mxCell id="1" parent="0" />
        <mxCell id="VLCuWNllvmrgFxP7a4Ia-4" value="Gitlab" style="swimlane;whiteSpace=wrap;html=1;" vertex="1" parent="1">
          <mxGeometry x="10" y="10" width="710" height="1070" as="geometry" />
        </mxCell>
        <mxCell id="VLCuWNllvmrgFxP7a4Ia-5" value="FT RBAC" style="swimlane;whiteSpace=wrap;html=1;" vertex="1" parent="VLCuWNllvmrgFxP7a4Ia-4">
          <mxGeometry x="20" y="40" width="410" height="1010" as="geometry" />
        </mxCell>
        <mxCell id="VLCuWNllvmrgFxP7a4Ia-6" value="Documentation" style="swimlane;whiteSpace=wrap;html=1;" vertex="1" parent="VLCuWNllvmrgFxP7a4Ia-5">
          <mxGeometry x="20" y="200" width="370" height="670" as="geometry">
            <mxRectangle x="20" y="200" width="120" height="30" as="alternateBounds" />
          </mxGeometry>
        </mxCell>
        <mxCell id="VLCuWNllvmrgFxP7a4Ia-11" value="api_doc_v1.0.0" style="swimlane;whiteSpace=wrap;html=1;" vertex="1" parent="VLCuWNllvmrgFxP7a4Ia-6">
          <mxGeometry x="20" y="40" width="330" height="610" as="geometry" />
        </mxCell>
        <mxCell id="VLCuWNllvmrgFxP7a4Ia-18" value="dependencies" style="swimlane;whiteSpace=wrap;html=1;" vertex="1" parent="VLCuWNllvmrgFxP7a4Ia-11">
          <mxGeometry x="10" y="130" width="310" height="470" as="geometry">
            <mxRectangle x="10" y="130" width="140" height="30" as="alternateBounds" />
          </mxGeometry>
        </mxCell>
        <mxCell id="VLCuWNllvmrgFxP7a4Ia-25" value="basic_page" style="swimlane;whiteSpace=wrap;html=1;" vertex="1" parent="VLCuWNllvmrgFxP7a4Ia-18">
          <mxGeometry x="10" y="180" width="290" height="270" as="geometry">
            <mxRectangle x="20" y="30" width="140" height="30" as="alternateBounds" />
          </mxGeometry>
        </mxCell>
        <mxCell id="VLCuWNllvmrgFxP7a4Ia-26" value="description_page" style="swimlane;whiteSpace=wrap;html=1;" vertex="1" parent="VLCuWNllvmrgFxP7a4Ia-18">
          <mxGeometry x="10" y="30" width="290" height="130" as="geometry">
            <mxRectangle x="10" y="30" width="140" height="30" as="alternateBounds" />
          </mxGeometry>
        </mxCell>
        <mxCell id="VLCuWNllvmrgFxP7a4Ia-39" value="desc-page.md" style="rounded=0;whiteSpace=wrap;html=1;" vertex="1" parent="VLCuWNllvmrgFxP7a4Ia-26">
          <mxGeometry x="70" y="30" width="120" height="40" as="geometry" />
        </mxCell>
        <mxCell id="VLCuWNllvmrgFxP7a4Ia-40" value="desc-data.json" style="rounded=0;whiteSpace=wrap;html=1;" vertex="1" parent="VLCuWNllvmrgFxP7a4Ia-26">
          <mxGeometry x="70" y="80" width="120" height="40" as="geometry" />
        </mxCell>
        <mxCell id="VLCuWNllvmrgFxP7a4Ia-22" value="swagger.yaml" style="rounded=0;whiteSpace=wrap;html=1;" vertex="1" parent="VLCuWNllvmrgFxP7a4Ia-11">
          <mxGeometry x="90" y="80" width="120" height="40" as="geometry" />
        </mxCell>
        <mxCell id="VLCuWNllvmrgFxP7a4Ia-23" value="data.json" style="rounded=0;whiteSpace=wrap;html=1;" vertex="1" parent="VLCuWNllvmrgFxP7a4Ia-11">
          <mxGeometry x="90" y="30" width="120" height="40" as="geometry" />
        </mxCell>
        <mxCell id="VLCuWNllvmrgFxP7a4Ia-8" value="Proxy API 1" style="rounded=0;whiteSpace=wrap;html=1;" vertex="1" parent="VLCuWNllvmrgFxP7a4Ia-5">
          <mxGeometry x="130" y="40" width="120" height="40" as="geometry" />
        </mxCell>
        <mxCell id="VLCuWNllvmrgFxP7a4Ia-9" value="IP Proxy API 1" style="rounded=0;whiteSpace=wrap;html=1;" vertex="1" parent="VLCuWNllvmrgFxP7a4Ia-5">
          <mxGeometry x="130" y="90" width="120" height="40" as="geometry" />
        </mxCell>
        <mxCell id="VLCuWNllvmrgFxP7a4Ia-10" value="Proxy API 2" style="rounded=0;whiteSpace=wrap;html=1;" vertex="1" parent="VLCuWNllvmrgFxP7a4Ia-5">
          <mxGeometry x="130" y="140" width="120" height="40" as="geometry" />
        </mxCell>
        <mxCell id="VLCuWNllvmrgFxP7a4Ia-55" value="Portal" style="swimlane;whiteSpace=wrap;html=1;" vertex="1" parent="1">
          <mxGeometry x="960" y="290" width="480" height="400" as="geometry" />
        </mxCell>
        <mxCell id="VLCuWNllvmrgFxP7a4Ia-56" value="Swagger Page" style="rounded=0;whiteSpace=wrap;html=1;" vertex="1" parent="VLCuWNllvmrgFxP7a4Ia-55">
          <mxGeometry x="80" y="70" width="120" height="40" as="geometry" />
        </mxCell>
        <mxCell id="VLCuWNllvmrgFxP7a4Ia-57" value="Desc Page" style="rounded=0;whiteSpace=wrap;html=1;" vertex="1" parent="VLCuWNllvmrgFxP7a4Ia-55">
          <mxGeometry x="80" y="120" width="120" height="40" as="geometry" />
        </mxCell>
        <mxCell id="VLCuWNllvmrgFxP7a4Ia-58" value="Changelog Page" style="rounded=0;whiteSpace=wrap;html=1;" vertex="1" parent="VLCuWNllvmrgFxP7a4Ia-55">
          <mxGeometry x="80" y="170" width="120" height="40" as="geometry" />
        </mxCell>
        <mxCell id="VLCuWNllvmrgFxP7a4Ia-59" value="How to Page" style="rounded=0;whiteSpace=wrap;html=1;" vertex="1" parent="VLCuWNllvmrgFxP7a4Ia-55">
          <mxGeometry x="80" y="220" width="120" height="40" as="geometry" />
        </mxCell>
      </root>
    </mxGraphModel>
  </diagram>
</mxfile>
